<svg xmlns="http://www.w3.org/2000/svg" width="347" height="347" fill="none" viewBox="0 0 347 347">
  <g clip-path="url(#a)">
    <path fill="#FEE1CC" fill-rule="evenodd" d="M169.517 31.613c25.269-2.18 53.284-16.652 74.404-5.335 21.197 11.359 10.302 39.314 22.484 57.254 13.619 20.055 48.582 29.911 52.088 52.564 3.561 23.017-12.02 47.568-34.3 62.395-21.518 14.32-53.395 8.023-80.389 13.929-26.298 5.754-48.968 23.021-76.015 20.289-28.345-2.863-50.962-19.331-71.543-35.192C34.06 180.419 9.069 162.322 4.778 137.91c-4.287-24.395 9.66-49.399 28.935-68.604C50.956 52.125 78.745 45.51 104.758 38.29c20.989-5.825 42.673-4.77 64.759-6.677Z" clip-rule="evenodd"/>
    <path fill="#DFF0FF" d="M311.596 318.917c-.712-11.612-1.659-23.943-8.769-33.06-4.62-5.924-11.257-9.834-18.129-12.796-21.21-9.124-44.909-10.191-67.896-10.309-45.62-.238-92.543 3.081-134.252 21.802-11.257 5.095-22.035 11.256-30.927 19.789-8.892 8.533-15.64 19.55-17.537 31.751 23.107-7.228 47.87-4.503 71.924-1.423 24.054 3.08 47.99 7.821 72.162 7.702 11.021-.118 21.922-1.184 32.943-2.369 35.191-3.787 68.133-6.513 100.481-21.087Z"/>
    <path fill="#C3D9EC" d="M61.102 327.33c8.888-11.972 22.034-19.67 33.534-28.801a66.637 66.637 0 0 0 14.811-15.167 36.514 36.514 0 0 0 4.74-9.954 227.663 227.663 0 0 0-31.637 11.139c-11.257 5.095-22.035 11.256-30.927 19.789-8.892 8.533-15.64 19.55-17.537 31.75a99.576 99.576 0 0 1 24.29-4.266 18.976 18.976 0 0 1 2.726-4.49Zm241.725-41.592c-4.62-5.925-11.257-9.833-18.129-12.797-2.603-1.065-5.205-2.132-7.82-2.962a34.552 34.552 0 0 1-1.778 6.873 51.923 51.923 0 0 1 14.574 9.124 48.11 48.11 0 0 1 11.375 14.812.87.87 0 0 1-.639 1.294.867.867 0 0 1-.546-.109 18.847 18.847 0 0 0-3.438-1.778 39.923 39.923 0 0 0-16.232-2.603 30.943 30.943 0 0 0-14.93 3.673c-4.266 2.488-8.057 5.687-12.442 8.175a25.463 25.463 0 0 1-6.636 2.844c-2.478.613-5.04.814-7.584.593-12.318-.711-24.637-2.843-36.969-2.014-11.971.829-24.647 5.096-33.059 13.745a50.436 50.436 0 0 0-10.429 16.59c6.656.63 13.341.907 20.026.829 11.02-.12 21.921-1.185 32.942-2.37 35.311-3.555 68.252-6.281 100.601-20.974-.83-11.378-1.777-23.702-8.887-32.945Z"/>
    <path fill="#F79E6C" d="M172.485 64.868a23.449 23.449 0 0 1-3.791 13.747 8.546 8.546 0 0 1-3.673 3.435 2.625 2.625 0 0 1-1.896.118c-1.067-.347-1.659-1.659-2.015-2.724-2.014-6.043-4.74-16.47-1.067-22.515a5.3 5.3 0 0 1 6.992-2.015c3.909 1.66 5.332 6.044 5.45 9.954Z"/>
    <path fill="#FC6900" d="M167.745 59.063a37.484 37.484 0 0 0-2.488 10.9 9.129 9.129 0 0 1 3.437-1.184 33.237 33.237 0 0 0-6.992 10.19c.475-1.186-.947-4.859-.947-6.28.035-1.497.315-2.978.829-4.384a20.89 20.89 0 0 1 6.161-9.243Z"/>
    <path fill="#F79E6C" d="M148.787 124.471c-7.702 4.858-16.83 4.74-25.002 1.776a36.027 36.027 0 0 0 3.436-19.314c3.199-3.317 8.413-4.511 15.76-2.726a40.426 40.426 0 0 0 11.972 14.932 24.133 24.133 0 0 1-6.166 5.332Z"/>
    <path fill="#000" d="M140.492 115.11c-2.477.616-5.083.45-7.461-.475a58.491 58.491 0 0 1-5.682-2.488c0-1.659 0-3.317-.12-5.214 3.2-3.317 8.413-4.511 15.761-2.726a53.999 53.999 0 0 0 2.962 5.214 9.934 9.934 0 0 1-5.46 5.689Z"/>
    <path fill="#F79E6C" d="M155.185 36.782a125.195 125.195 0 0 1 8.413 29.032c1.423 9.004 3.2 20.499-.711 29.03a24.99 24.99 0 0 1-12.915 11.971c-7.558 3.009-12.365 4.356-20.472 3.685-5.797-.171-8.897-3.973-13.5-7.5-4.622-3.793-13.07-7.686-15.795-12.775a144.644 144.644 0 0 1-9.007-20.617c-3.197-9.716-5.923-23.11-2.02-33.059a34.25 34.25 0 0 1 20.625-19.316c11.612-3.79 23.58-1.184 33.534 5.334a32.836 32.836 0 0 1 11.848 14.227"/>
    <path fill="#fff" d="M123.185 73.518a49.439 49.439 0 0 1-5.923 1.897c-1.957.338-3.94.496-5.925.473a9.49 9.49 0 0 1-3.082-.355c3.318 2.843 6.637 4.51 10.063 3.91a11.553 11.553 0 0 0 8.651-7.228c-1.287.592-2.472.71-3.784 1.303Z"/>
    <path fill="#000" d="M122.522 74.093c-1.955.53-3.951.895-5.967 1.09a26.818 26.818 0 0 1-1.545 3.995 6.47 6.47 0 0 0 2.118.25 11.55 11.55 0 0 0 9.436-6.167c-1.48.418-2.67.397-4.042.832Z"/>
    <path fill="#FC6900" d="M136.938 86.552c.118-8.294-.711-11.972-2.963-21.21 5.333 11.02 8.651 12.679 11.971 15.522a83.56 83.56 0 0 0-9.008 5.688Z"/>
    <path fill="#F79E6C" d="M90.133 72.925c-2.37-.591-5.331-.71-6.992 1.068a5.165 5.165 0 0 0-1.303 3.199 13.408 13.408 0 0 0 4.029 9.954 27.033 27.033 0 0 0 16.944 8.648 4.98 4.98 0 0 0 4.622-1.302 4.51 4.51 0 0 0 .711-2.726 15.508 15.508 0 0 0-3.199-7.938c-4.029-5.451-8.057-9.244-14.812-10.903Z"/>
    <path fill="#FC6900" d="M102.931 89.989c-4.267-9.598-10.31-11.375-16.115-13.39a45.287 45.287 0 0 1 10.545 9.005 11.463 11.463 0 0 0-6.28.83c4.266.711 5.687 1.423 11.85 3.555Z"/>
    <path fill="#000" d="M137.412 58.47a28.037 28.037 0 0 1 10.545-3.674 71.107 71.107 0 0 1 11.257-.473 15.014 15.014 0 0 0-7.46-3.793 25.29 25.29 0 0 0-5.205-.347 31.824 31.824 0 0 0-11.021 1.539 27.416 27.416 0 0 1 1.884 6.747Zm-11.494 2.133a25.816 25.816 0 0 0-11.257.347 66.535 66.535 0 0 0-10.665 3.555 15.128 15.128 0 0 1 5.569-6.279c1.488-.9 3.08-1.617 4.74-2.134a31.735 31.735 0 0 1 10.789-2.48c.092 2.348.367 4.686.824 6.991Zm6.754 36.97a13.68 13.68 0 0 1-8.651-2.964l1.305-1.658c6.399 4.977 14.574 1.778 19.788-2.488l1.303 1.54a22.972 22.972 0 0 1-13.745 5.57Z"/>
    <path fill="#000" d="M97.835 51.009c5.451 1.42 11.257-.83 15.879-4.148 4.622-3.32 8.293-7.702 12.559-11.257 4.385-3.555 9.716-6.517 15.404-6.043 6.162.474 11.376 5.096 14.338 10.545a53.966 53.966 0 0 1 5.095 17.657c4.74-7.46 8.887-14.102 13.627-21.566a20.976 20.976 0 0 0 4.029-9.48 10.21 10.21 0 0 0-4.976-9.598c-4.858-2.726-11.139-.474-15.879 2.488-.711-4.028-1.067-9.005-3.081-12.56-2.015-3.555-5.332-6.64-9.479-6.993-5.683-.594-10.427 3.909-15.167 6.99-5.494 3.526-17.66-.196-24.184 0-6.043.238-6.269 4.502-12.194 3.91-6.043-.593-12.441-.355-17.655 2.726-5.214 3.082-8.769 9.597-6.751 15.404a15.552 15.552 0 0 0 4.384 6.043 32.394 32.394 0 0 0 7.702 5.451 15.867 15.867 0 0 0-12.207 18.603 9.37 9.37 0 0 0 1.42 3.555c2.015 2.843 5.808 3.555 9.243 4.384 7.348 1.777 14.694 5.687 17.893 12.56 3.437-9.36 2.488-19.196 0-28.671Z"/>
    <path fill="#FC6900" d="M107.671 75.888c2.132-3.673 6.872-7.701 10.189-8.057a10.676 10.676 0 0 1 9.125 4.265 47.214 47.214 0 0 1-19.314 3.792Z"/>
    <path fill="#000" d="M104.825 75.299a64.429 64.429 0 0 0 23.581-3.91 24.744 24.744 0 0 1-11.257 5.213c-4.151.66-8.403.21-12.324-1.303Z"/>
    <path fill="#fff" d="M155.541 67.594a49.232 49.232 0 0 1-5.925 1.896c-1.956.339-3.94.497-5.925.474a9.479 9.479 0 0 1-3.08-.356c3.318 2.843 6.635 4.51 10.072 3.91a11.551 11.551 0 0 0 8.649-7.228c-1.303.592-2.488.712-3.791 1.303Z"/>
    <path fill="#000" d="M154.157 69.029a36.022 36.022 0 0 1-6.053.537 26.782 26.782 0 0 1-1.901 3.838c.666.262 1.371.41 2.086.441a11.555 11.555 0 0 0 9.958-5.284c-1.509.286-2.693.158-4.09.468Z"/>
    <path fill="#FC6900" d="M140.015 69.963c2.134-3.672 6.872-7.701 10.191-8.057a10.678 10.678 0 0 1 9.123 4.265 47.203 47.203 0 0 1-19.314 3.792Z"/>
    <path fill="#000" d="M137.174 69.49a64.469 64.469 0 0 0 23.581-3.907 24.766 24.766 0 0 1-11.257 5.204 25.159 25.159 0 0 1-12.324-1.297Z"/>
    <path fill="#326DE6" d="M150.919 241.186a99.093 99.093 0 0 1-33.532-14.812 25.92 25.92 0 0 1-7.94-7.702c-2.602-4.502-2.602-9.953-2.488-15.167.115-5.214.236-10.427.347-15.641.236-12.204-.119-24.054 1.659-36.14a49.77 49.77 0 0 1 3.555-13.865 21.622 21.622 0 0 1 9.478-10.545c1.541 2.844 4.511 3.437 7.704 3.673 3.2-.062 6.368-.663 9.369-1.777 7.228-2.255 15.167-4.977 19.076-11.612 15.405 8.887 31.284 19.67 38.274 36.022 4.503 10.428 4.976 22.158 6.99 33.297a126.657 126.657 0 0 0 4.978 18.602c1.185 3.437 2.603 6.873 2.488 10.428-.118 6.161-4.511 11.494-9.369 15.405-14.567 11.61-32.578 14.1-50.589 9.834Z"/>
    <path fill="#fff" d="M125.206 158.123a2.837 2.837 0 0 0-.709 3.91l29.495 42.419 4.146 2.49.347.474a.777.777 0 0 0 1.049.208.775.775 0 0 0 .256-1.038l-.347-.473-.829-4.74-29.497-42.421a2.645 2.645 0 0 0-1.767-1.302 2.657 2.657 0 0 0-2.144.473Z"/>
    <path fill="#000" d="m125.463 163.947 5.157-3.587 1.556 2.239-5.157 3.584-1.556-2.236Z"/>
    <path fill="#F79E6C" d="m126.985 199.121 4.62-13.153a36.957 36.957 0 0 1 3.673-8.294c2.726-4.511 6.992-7.703 11.259-10.902a11.033 11.033 0 0 1 5.094-2.603 3.768 3.768 0 0 1 4.266 2.962 3.942 3.942 0 0 1 3.791 2.602c.217.811.258 1.66.12 2.488 0 1.185-.12 2.37-.12 3.555.711-.118 1.185.592 1.423 1.303a3.317 3.317 0 0 1-.118 2.132c-.232.953-.591 1.87-1.067 2.726.237 3.199.711 6.519.947 9.716a4.679 4.679 0 0 1-3.791-2.134 7.966 7.966 0 0 0-3.317-2.962 1.009 1.009 0 0 0-.83 0c-.355.118-.475.474-.711.83-2.134 5.205-3.673 11.019-7.939 14.811a14.661 14.661 0 0 1-8.058 3.555 9.367 9.367 0 0 1-6.398-1.422c-1.897-1.3-3.556-3.071-2.844-5.21Z"/>
    <path fill="#292FC7" d="M97.597 284.792c-1.776 4.502-6.279 7.228-10.545 9.598-6.28 3.435-12.797 6.398-18.603 10.663a35.697 35.697 0 0 0-13.27 16.352 14.85 14.85 0 0 0-.83 8.177 8.872 8.872 0 0 0 4.62 6.517c3.555 1.777 7.822.474 11.375-1.067 14.227-6.161 26.78-15.877 41.466-20.737 1.897-3.199 1.777-6.634 2.488-10.307a31.918 31.918 0 0 0 .712-11.613 13.433 13.433 0 0 0-6.043-9.598c-3.305-2.014-9.947-1.533-11.37 2.015Z"/>
    <path fill="#FEAF76" d="M257.209 257.538a66.114 66.114 0 0 1 15.047 3.555c5.214 1.894 10.428 4.858 12.68 9.954 2.37 5.567.236 12.204-3.911 16.588s-9.954 6.635-15.759 8.175c-10.309 2.726-21.092 3.319-31.638 4.267-6.754.591-13.508 1.54-20.263 2.37a2574.649 2574.649 0 0 0-65.29 9.369c-2.255.347-5.449.119-5.923-2.133a3.104 3.104 0 0 1 .236-1.778c4.148-14.574 16.708-25.237 29.979-32.467 24.29-13.389 52.611-18.485 80.457-18.129.833-.009 3.436.111 4.385.229Z"/>
    <path fill="#FD9449" d="M252.587 255.168c-14.338-4.147-28.557-4.147-43.25-2.37-7.702.947-19.552-.829-19.432-11.019 0-6.045.591-11.85 3.079-16.59-14.93 2.255-25.949 9.716-40.998 10.545-6.754.347-13.389-2.132-19.779-4.62-3.317-1.303-6.163-2.014-9.48-3.199-10.554 34.243-39.822 61.497-45.035 97.05a88.356 88.356 0 0 0-.594 17.656 92.427 92.427 0 0 1 11.495-1.067c15.878-.474 31.519 2.489 47.16 4.622 2.256.355 4.503.591 6.873.829a103.33 103.33 0 0 1 1.658-23.462c3.2-16.351 11.731-32.23 25.595-41.59 29.03-19.67 69.555-24.054 98.704-21.922-5.095-2.849-11.138-3.56-15.996-4.863Z"/>
    <path fill="#DD6640" d="M78.283 220.331c-1.065 9.835-1.894 20.381 2.603 29.267a7.004 7.004 0 0 0 4.264 4.147c3.082.711 5.57-2.255 7.348-4.858a106.648 106.648 0 0 0 16.944-52.255 5.226 5.226 0 0 0-.238-2.37c-.709-1.658-2.724-2.132-4.502-2.488-5.332-.829-18.603-5.205-21.92.712-1.896 3.435-2.134 8.886-2.726 12.677-.593 5.096-1.18 10.192-1.773 15.168Z"/>
    <path fill="#F79E6C" d="M96.768 214.999a49.94 49.94 0 0 0-10.428 8.887 29.635 29.635 0 0 0-6.634 20.855 13.3 13.3 0 0 0 1.776 6.398 6.774 6.774 0 0 0 5.451 3.436c2.489.119 4.621-1.421 6.635-2.844 7.114-5.094 46.688-47.041 44.08-59.009-1.895-8.531-6.517-2.603-10.663 1.185-9.125 8.413-20.144 14.22-30.217 21.092Z"/>
    <path fill="#292FC7" d="M154.118 114.99c12.442-1.776 32.823.238 42.185 8.769 11.137 10.063 18.011 25.595 30.808 33.178-4.74 4.147-9.598 8.058-14.574 11.972a48.767 48.767 0 0 1-18.958 9.598 281.117 281.117 0 0 0-20.143-41.12c-4.149-6.872-9.369-14.574-17.42-15.403a21.959 21.959 0 0 1-13.508 10.783 32.183 32.183 0 0 1-20.499-2.256c-6.874 11.615-11.377 23.227-10.192 36.743.592 7.228.947 14.574 1.067 21.92a29.657 29.657 0 0 1-1.778 10.665 296.873 296.873 0 0 0-39.695-3.2c2.725-9.598 5.57-19.085 8.295-28.676 2.014-6.752 3.91-13.626 7.584-19.67 7.113-11.971 20.143-18.72 34.481-24.636a13.616 13.616 0 0 0 9.834 4.384 25.417 25.417 0 0 0 10.665-1.907 19.354 19.354 0 0 0 11.848-11.144Z"/>
    <path fill="#008C6E" d="m136.109 267.372 9.242-106.524h92.068l3.081 4.738-101.311 106.526-3.08-4.74Z"/>
    <path fill="#30A14E" d="m139.189 272.112 74.77-4.029 26.542-102.497h-91.95l-9.362 106.526Z"/>
    <path fill="#F79E6C" d="M230.784 220.924a6.41 6.41 0 0 1-1.896 1.658c-2.132 1.421-4.266 2.844-6.517 4.265-.237.12-.473.238-.593.12s-.118-.238-.236-.238c-.238-.711.236-1.303.592-1.896.711-1.065 1.54-2.133 2.255-3.08a15.684 15.684 0 0 1 3.2-3.081c.709-.474 2.961-1.659 3.908-1.067.828.355-.239 2.725-.713 3.319Z"/>
    <path fill="#FC6900" d="M229.599 222.107c.422-.325.818-.681 1.185-1.065.474-.594 1.541-2.964.83-3.437-.949-.592-3.2.593-3.911 1.067a13.152 13.152 0 0 0-3.199 3.081 7.163 7.163 0 0 0-.83 1.185 19.877 19.877 0 0 1 5.925-.831Z"/>
    <path fill="#F79E6C" d="M234.457 211.8a27.146 27.146 0 0 1-.593 5.331 2.969 2.969 0 0 1-.71 1.659 3.988 3.988 0 0 1-2.602 1.067c-3.556.356-7.111.594-10.665.711a11.43 11.43 0 0 1-2.844-.119.619.619 0 0 1-.473-.236c-.236-.238-.118-.712.119-1.067a5.152 5.152 0 0 1 1.539-1.659 13.735 13.735 0 0 1 6.043-2.132c2.49-.476 5.096-.949 7.584-1.423a11.406 11.406 0 0 0 2.602-2.132Z"/>
    <path fill="#FC6900" d="M226.765 216.776c2.37 0 4.738 0 7.228-.118.339-1.597.498-3.226.473-4.858-.711.591-1.54 1.776-2.488 1.894-2.489.476-5.095.949-7.583 1.423a15.525 15.525 0 0 0-5.57 1.896c2.597-.119 5.323-.237 7.94-.237Z"/>
    <path fill="#F79E6C" d="M235.049 202.202a50.963 50.963 0 0 1 1.185 6.161 6.488 6.488 0 0 1-.473 4.502 7.307 7.307 0 0 1-5.205 2.49c-4.74.829-9.48 1.539-14.101 2.37a1.401 1.401 0 0 1-1.185-.12 1.237 1.237 0 0 1-.13-1.424 9.164 9.164 0 0 1 4.976-4.149 64.165 64.165 0 0 1 9.125-3.199l1.067-4.265 4.741-2.366Z"/>
    <path fill="#FC6900" d="M224.742 210.851a74.038 74.038 0 0 1 11.612-1.895 1.062 1.062 0 0 0-.12-.593c-.347-2.015-.709-4.147-1.185-6.161l-4.738 2.488-1.067 4.266a59.237 59.237 0 0 0-9.124 3.199 8.26 8.26 0 0 0-2.015 1.066 24.804 24.804 0 0 1 6.637-2.37Z"/>
    <path fill="#F79E6C" d="M231.969 198.528a95.188 95.188 0 0 0-11.971 8.531 6.645 6.645 0 0 0-1.778 1.897c-.236.473-.71 1.658-.118 2.132.473.347 1.303-.118 1.776-.238.929-.204 1.84-.481 2.726-.829l6.399-2.132c1.896-.712 3.91-1.303 5.807-2.133a7.912 7.912 0 0 0 2.132-1.304c.432-.567.753-1.21.947-1.895a20.729 20.729 0 0 0 1.423-6.518c-.118-2.256-2.844-4.976-4.976-5.806"/>
  </g>
  <defs>
    <clipPath id="a">
      <path fill="#fff" d="M0 0h347v347H0z"/>
    </clipPath>
  </defs>
</svg>
