<svg width="640" height="291" viewBox="0 0 640 291" fill="none" xmlns="http://www.w3.org/2000/svg">
<path d="M1 233.349V288.982C46.2773 288.038 82.6908 251.087 82.6908 205.641V95.3194C82.6908 69.0359 99.6194 56.5957 110.489 56.5957C121.359 56.5957 138.288 69.0359 138.288 95.3194V194.681C138.288 241.875 171.174 289 221.753 289C272.332 289 305.218 241.875 305.218 194.681V95.3194C305.218 69.0359 322.147 56.5957 333.017 56.5957C343.887 56.5957 360.815 69.0359 360.815 95.3194V194.681C360.815 241.875 393.701 289 444.281 289C494.86 289 527.746 241.875 527.746 194.681V95.3194C527.746 69.0359 544.674 56.5957 555.544 56.5957C566.414 56.5957 583.343 69.0359 583.343 95.3194V194.681C583.343 241.875 616.229 289 666.808 289C667.542 289 668.273 288.99 669 288.97V233.246C668.248 233.352 667.515 233.404 666.808 233.404C655.938 233.404 639.01 220.964 639.01 194.681V95.3194C639.01 48.1252 606.124 1 555.544 1C504.965 1 472.079 48.1253 472.079 95.3194V194.681C472.079 220.964 455.151 233.404 444.281 233.404C433.411 233.404 416.482 220.964 416.482 194.681V95.3194C416.482 48.1253 383.596 1 333.017 1C282.438 1 249.552 48.1253 249.552 95.3194V194.681C249.552 220.964 232.623 233.404 221.753 233.404C210.883 233.404 193.955 220.964 193.955 194.681V95.3194C193.955 48.1253 161.069 1 110.489 1C59.91 1 27.0242 48.1253 27.0242 95.3194V205.641C27.0242 220.379 15.5259 232.435 1 233.349Z" stroke="#D7D7D8" stroke-width="2"/>
</svg>
