<svg width="54" height="375" viewBox="0 0 54 375" fill="none" xmlns="http://www.w3.org/2000/svg">
<path d="M-1.95996 98.3423C34.4219 114.696 51.5268 148.865 53.2109 186.546C53.3649 189.992 50.5535 192.792 47.1045 192.792H5.02005C37.2912 210.678 51.7052 242.52 53.2159 277.501C53.3647 280.947 50.5535 283.745 47.1045 283.745H5.02005C37.2912 301.632 51.7052 333.474 53.2159 368.454C53.3647 371.9 50.5535 374.699 47.1045 374.699H-127.755C-131.204 374.699 -134.015 371.9 -133.866 368.454C-132.356 333.474 -117.942 301.632 -85.6705 283.745H-127.755C-131.204 283.745 -134.015 280.947 -133.866 277.501C-132.356 242.52 -117.942 210.678 -85.6705 192.792H-127.755C-131.204 192.792 -134.015 189.992 -133.861 186.547C-132.177 148.865 -115.072 114.696 -78.6905 98.3423L-121.45 25.6045L40.7995 25.6045L-1.95996 98.3423Z" fill="#F1F5FD"/>
</svg>
